<?xml version="1.0" encoding="UTF-8" standalone="no"?>
<!DOCTYPE svg PUBLIC "-//W3C//DTD SVG 1.1//EN"
 "http://www.w3.org/Graphics/SVG/1.1/DTD/svg11.dtd">
<!-- Generated by graphviz version 12.2.1 (20241206.2353)
 -->
<!-- Title: basic_graph Pages: 1 -->
<svg width="242pt" height="67pt"
 viewBox="0.00 0.00 242.00 67.00" xmlns="http://www.w3.org/2000/svg" xmlns:xlink="http://www.w3.org/1999/xlink">
<g id="graph0" class="graph" transform="scale(1 1) rotate(0) translate(4 63)">
<title>basic_graph</title>
<polygon fill="white" stroke="none" points="-4,4 -4,-63 238,-63 238,4 -4,4"/>
<!-- A -->
<g id="node1" class="node">
<title>A</title>
<polygon fill="none" stroke="black" points="54,-36 0,-36 0,0 54,0 54,-36"/>
<text text-anchor="middle" x="27" y="-12.95" font-family="Times,serif" font-size="14.00">A</text>
</g>
<!-- B -->
<g id="node2" class="node">
<title>B</title>
<ellipse fill="lightblue" stroke="black" cx="117" cy="-41" rx="27" ry="18"/>
<text text-anchor="middle" x="117" y="-35.95" font-family="Times,serif" font-size="14.00">B</text>
</g>
<!-- A&#45;&gt;B -->
<g id="edge1" class="edge">
<title>A&#45;&gt;B</title>
<path fill="none" stroke="black" d="M54.4,-24.9C62.57,-27.04 71.7,-29.42 80.39,-31.69"/>
<polygon fill="black" stroke="black" points="79.4,-35.05 89.96,-34.19 81.17,-28.28 79.4,-35.05"/>
</g>
<!-- C -->
<g id="node3" class="node">
<title>C</title>
<ellipse fill="none" stroke="black" cx="207" cy="-18" rx="27" ry="18"/>
<text text-anchor="middle" x="207" y="-12.95" font-family="Times,serif" font-size="14.00">C</text>
</g>
<!-- B&#45;&gt;C -->
<g id="edge2" class="edge">
<title>B&#45;&gt;C</title>
<path fill="none" stroke="black" d="M142.51,-34.59C151.12,-32.34 160.97,-29.77 170.3,-27.33"/>
<polygon fill="black" stroke="black" points="171.06,-30.75 179.85,-24.83 169.29,-23.98 171.06,-30.75"/>
</g>
<!-- C&#45;&gt;A -->
<g id="edge3" class="edge">
<title>C&#45;&gt;A</title>
<path fill="none" stroke="black" d="M179.77,-15.93C168.74,-15.16 155.75,-14.38 144,-14 120.01,-13.23 113.99,-13.23 90,-14 82.1,-14.25 73.65,-14.69 65.61,-15.18"/>
<polygon fill="black" stroke="black" points="65.49,-11.68 55.74,-15.83 65.95,-18.67 65.49,-11.68"/>
</g>
</g>
</svg>
